<?xml version="1.0" encoding="UTF-8" standalone="no"?>
<!DOCTYPE svg PUBLIC "-//W3C//DTD SVG 1.1//EN" "http://www.w3.org/Graphics/SVG/1.1/DTD/svg11.dtd">
<svg width="100%" height="100%" viewBox="0 0 2000 2000" version="1.1" xmlns="http://www.w3.org/2000/svg" xmlns:xlink="http://www.w3.org/1999/xlink" xml:space="preserve" xmlns:serif="http://www.serif.com/" style="fill-rule:evenodd;clip-rule:evenodd;stroke-linejoin:round;stroke-miterlimit:2;">
    <g transform="matrix(2.25941,0,0,2.25941,-498.451,-761.229)">
        <path d="M944.9,390.358L945.769,386.424L352.832,386.424L352.832,1172.59L423.333,1172.59L423.333,948.868L556.621,818.98L640.118,818.98L914.846,1172.59L954.916,1172.59L973.576,1134.44L728.219,818.98L865.611,818.98L865.611,750.59L675.027,750.59L654.083,723.662C654.083,723.662 959.767,427.028 959.767,427.028L944.9,390.358ZM423.333,818.98L423.333,853.185L458.333,818.98L423.333,818.98ZM831.049,454.736L423.333,454.809C423.333,454.809 423.333,750.59 423.333,750.59L528.314,750.59L831.049,454.736Z" style="fill:rgb(0,133,166);"/>
    </g>
</svg>
