<?xml version="1.0" encoding="UTF-8" standalone="no"?>
<!DOCTYPE svg PUBLIC "-//W3C//DTD SVG 1.1//EN" "http://www.w3.org/Graphics/SVG/1.1/DTD/svg11.dtd">
<svg width="100%" height="100%" viewBox="0 0 2000 2000" version="1.1" xmlns="http://www.w3.org/2000/svg" xmlns:xlink="http://www.w3.org/1999/xlink" xml:space="preserve" xmlns:serif="http://www.serif.com/" style="fill-rule:evenodd;clip-rule:evenodd;stroke-linejoin:round;stroke-miterlimit:2;">
    <g transform="matrix(1.33401,0,0,1.33401,-334.013,-171.99)">
        <path d="M683.266,492.957L683.799,495.901C683.545,505.32 659.142,618.549 610.589,835.589L613.533,835.589C613.177,833.626 714.132,719.416 916.396,492.957L1217.82,492.957L1218.99,499.433C1214.28,499.433 1125.75,599.907 953.398,800.855C945.546,805.172 900.316,856.586 817.708,955.098L818.242,958.041L1118.15,1329.52L1118.69,1332.46L851.413,1332.46C842.638,1327.36 752.063,1215.31 579.689,996.308C572.907,1002.2 551.743,1093.25 516.196,1269.47C504.973,1311.47 498.381,1332.46 496.419,1332.46L250.925,1332.46L250.391,1329.52C249.537,1324.81 311.016,1045.96 434.828,492.957L683.266,492.957ZM932.538,492.957L1749.08,492.957L1749.62,495.894C1725.19,607.907 1710.53,666.655 1705.64,672.138L1302.37,672.138C1295.11,686.237 1283.06,735.586 1266.22,820.182L1618.86,820.182C1600.69,916.92 1587.78,972.339 1580.14,986.439L1233.38,986.439C1227.5,986.439 1217.65,1025.21 1203.85,1102.76C1194.33,1141.14 1176.82,1217.71 1151.32,1332.46L902.289,1332.46L901.756,1329.53C903.09,1313.08 951.656,1093.95 1047.45,672.138C971.979,558.95 933.852,500.203 933.07,495.894L932.538,492.957Z" style="fill:rgb(81,183,208);fill-rule:nonzero;"/>
    </g>
</svg>
